<svg xmlns="http://www.w3.org/2000/svg" class="railroad-diagram" height="110" viewBox="0 0 729 110" width="729">
<style scoped="">svg.railroad-diagram{background-color:hsl(30,20%,95%);}svg.railroad-diagram path{stroke-width:3;stroke:black;fill:rgba(0,0,0,0);}svg.railroad-diagram text{font:bold 14px monospace;text-anchor:middle;}svg.railroad-diagram text.label{text-anchor:start;}svg.railroad-diagram text.comment{font:italic 12px monospace;}svg.railroad-diagram rect{stroke-width:3;stroke:black;fill:hsl(120,100%,90%);}</style>
<g transform="translate(.5 .5)">
<path d="M 20 31 v 20 m 10 -20 v 20 m -10 -10 h 20.5">
</path><g>
<path d="M40 41h0">
</path><path d="M108 41h0">
</path><path d="M40 41h20">
</path><g>
<path d="M60 41h28">
</path></g><path d="M88 41h20">
</path><path d="M40 41a10 10 0 0 1 10 10v0a10 10 0 0 0 10 10">
</path><g>
<path d="M60 61h0">
</path><path d="M88 61h0">
</path><rect height="22" rx="10" ry="10" width="28" x="60" y="50">
</rect><text x="74" y="65">
-</text></g><path d="M88 61a10 10 0 0 0 10 -10v0a10 10 0 0 1 10 -10">
</path></g><g>
<path d="M108 41h0">
</path><path d="M344 41h0">
</path><path d="M108 41h20">
</path><g>
<path d="M128 41h0">
</path><path d="M324 41h0">
</path><rect height="22" width="196" x="128" y="30">
</rect><text x="226" y="45">
a-z A-Z _ or non-ASCII</text></g><path d="M324 41h20">
</path><path d="M108 41a10 10 0 0 1 10 10v10a10 10 0 0 0 10 10">
</path><g>
<path d="M128 71h64">
</path><path d="M260 71h64">
</path><rect height="22" width="68" x="192" y="60">
</rect><text x="226" y="75">
escape</text></g><path d="M324 71a10 10 0 0 0 10 -10v-10a10 10 0 0 1 10 -10">
</path></g><g>
<path d="M344 41h0">
</path><path d="M688 41h0">
</path><path d="M344 41a10 10 0 0 0 10 -10v0a10 10 0 0 1 10 -10">
</path><g>
<path d="M364 21h304">
</path></g><path d="M668 21a10 10 0 0 1 10 10v0a10 10 0 0 0 10 10">
</path><path d="M344 41h20">
</path><g>
<path d="M364 41h0">
</path><path d="M668 41h0">
</path><path d="M364 41h10">
</path><g>
<path d="M374 41h0">
</path><path d="M658 41h0">
</path><path d="M374 41h20">
</path><g>
<path d="M394 41h0">
</path><path d="M638 41h0">
</path><rect height="22" width="244" x="394" y="30">
</rect><text x="516" y="45">
a-z A-Z 0-9 _ - or non-ASCII</text></g><path d="M638 41h20">
</path><path d="M374 41a10 10 0 0 1 10 10v10a10 10 0 0 0 10 10">
</path><g>
<path d="M394 71h88">
</path><path d="M550 71h88">
</path><rect height="22" width="68" x="482" y="60">
</rect><text x="516" y="75">
escape</text></g><path d="M638 71a10 10 0 0 0 10 -10v-10a10 10 0 0 1 10 -10">
</path></g><path d="M658 41h10">
</path><path d="M374 41a10 10 0 0 0 -10 10v29a10 10 0 0 0 10 10">
</path><g>
<path d="M374 90h284">
</path></g><path d="M658 90a10 10 0 0 0 10 -10v-29a10 10 0 0 0 -10 -10">
</path></g><path d="M668 41h20">
</path></g><path d="M 688 41 h 20 m -10 -10 v 20 m 10 -20 v 20">
</path></g></svg>
